<?xml version="1.0" standalone="no"?>
<!DOCTYPE svg PUBLIC "-//W3C//DTD SVG 20010904//EN"
 "http://www.w3.org/TR/2001/REC-SVG-20010904/DTD/svg10.dtd">
<svg version="1.0" xmlns="http://www.w3.org/2000/svg"
 width="300.000000pt" height="300.000000pt" viewBox="0 0 300.000000 300.000000"
 preserveAspectRatio="xMidYMid meet">
<metadata>
Created by potrace 1.14, written by Peter Selinger 2001-2017
</metadata>
<g transform="translate(0.000000,300.000000) scale(0.100000,-0.100000)"
fill="#000000" stroke="none">
<path d="M1469 2916 c-2 -3 -38 -7 -79 -11 -40 -3 -76 -8 -79 -11 -8 -7 15
-39 27 -37 14 3 23 -68 10 -84 -6 -7 -22 -13 -36 -13 l-25 0 21 23 c30 32 27
61 -9 91 -36 31 -38 31 -67 10 -29 -20 -26 -54 7 -70 22 -11 22 -12 5 -22 -18
-10 -17 -13 13 -43 25 -26 41 -33 74 -34 27 -1 44 -7 50 -18 14 -23 52 -23 45
1 -2 9 -10 44 -16 77 -6 33 -14 68 -16 78 -4 11 0 17 9 17 9 0 18 6 20 13 4
10 6 10 6 0 1 -7 8 -13 16 -13 12 0 15 -14 15 -67 0 -91 7 -113 34 -113 24 0
24 5 13 147 -2 24 2 33 16 37 15 4 17 8 7 25 -9 19 -49 29 -61 17z m-184 -86
c-5 -8 -11 -8 -17 -2 -6 6 -7 16 -3 22 5 8 11 8 17 2 6 -6 7 -16 3 -22z"/>
<path d="M1542 2904 c2 -11 13 -20 26 -22 29 -4 31 -47 2 -55 -12 -3 -20 -14
-20 -25 0 -25 75 -122 95 -122 7 0 17 -9 20 -20 4 -11 15 -20 27 -20 11 0 33
-13 48 -30 26 -28 50 -39 50 -24 0 4 -15 25 -33 48 -30 37 -32 45 -26 81 4 22
8 65 8 97 1 51 3 56 21 51 13 -3 20 0 20 8 -1 32 -18 38 -129 45 -108 7 -113
6 -109 -12z m154 -50 c-3 -9 -6 -22 -6 -31 0 -9 -8 -13 -22 -11 -17 2 -24 11
-26 31 -3 24 0 27 28 27 25 0 31 -3 26 -16z m-11 -86 c3 4 5 -13 4 -36 -2 -26
-8 -42 -16 -42 -7 0 -10 6 -7 14 3 9 -7 21 -25 32 -46 27 -40 48 9 34 16 -4
31 -5 35 -2z"/>
<path d="M1790 2886 c0 -21 22 -34 78 -47 28 -7 49 -16 47 -20 -3 -4 -21 -3
-41 2 -40 12 -83 -8 -85 -39 -4 -61 22 -121 52 -119 10 1 16 3 14 5 -2 3 0 14
6 25 6 11 7 17 1 13 -14 -8 -45 31 -39 49 4 9 19 15 42 15 40 0 40 1 21 -62
-8 -25 -12 -49 -9 -52 4 -3 -4 -6 -16 -6 -18 0 -22 -5 -19 -22 2 -18 9 -22 28
-20 20 2 22 0 12 -10 -17 -17 -43 -1 -62 40 -14 30 -40 44 -40 22 0 -22 41
-90 61 -100 53 -29 103 27 64 70 -15 16 -15 19 -3 15 12 -5 20 11 38 83 19 78
24 89 41 85 14 -4 19 0 19 16 0 21 -9 24 -145 60 -53 14 -65 14 -65 -3z"/>
<path d="M1065 2820 c-49 -21 -91 -42 -93 -48 -7 -21 37 -22 86 -3 62 25 78
14 20 -13 -34 -17 -44 -27 -46 -50 -4 -33 27 -72 75 -92 42 -18 43 -18 43 10
0 18 -8 25 -32 32 -43 12 -50 46 -13 62 14 7 28 12 29 12 2 0 12 -22 22 -50
14 -40 22 -50 41 -50 13 0 23 4 23 9 0 5 -15 45 -34 88 -30 72 -32 81 -17 90
14 10 14 13 1 26 -13 13 -25 10 -105 -23z"/>
<path d="M1302 2585 c-106 -19 -225 -60 -321 -111 -45 -24 -88 -41 -94 -37 -5
3 -7 1 -4 -5 4 -5 -17 -27 -45 -48 -82 -58 -165 -141 -231 -229 -33 -44 -64
-79 -69 -77 -5 1 -7 -2 -3 -8 9 -14 -14 -52 -27 -44 -6 4 -8 3 -5 -3 4 -6 -6
-39 -22 -74 -61 -136 -101 -318 -101 -464 0 -164 53 -381 126 -513 19 -35 31
-68 28 -74 -4 -6 -3 -8 3 -5 6 4 27 -18 47 -48 45 -69 150 -181 220 -234 54
-42 72 -78 32 -64 -12 4 -38 8 -58 7 -31 0 -35 3 -28 17 7 12 0 24 -25 49 -19
18 -32 36 -30 40 2 4 -10 20 -27 36 -17 16 -28 23 -24 17 10 -19 -4 -16 -27 4
-19 18 -20 17 -13 -9 5 -24 -2 -36 -60 -98 -54 -56 -69 -68 -81 -59 -17 15
-30 4 -15 -13 6 -7 12 -17 14 -23 1 -5 7 -9 12 -7 5 2 22 -9 37 -24 32 -31 48
-27 27 5 -11 19 -9 24 19 53 28 27 34 30 48 18 11 -10 15 -23 11 -42 -7 -37 3
-35 42 5 39 40 40 50 4 43 -17 -4 -35 -1 -47 8 -20 15 -19 16 12 48 l33 33 21
-21 c11 -12 24 -38 29 -59 8 -35 6 -42 -21 -72 -23 -26 -29 -43 -29 -78 0
-112 152 -176 225 -95 10 11 22 17 28 13 5 -3 7 -1 3 5 -3 6 -1 23 4 38 14 36
4 77 -28 116 -28 33 -38 62 -19 55 7 -2 12 -9 12 -14 0 -6 4 -15 9 -20 5 -5 6
-2 1 6 -9 16 -17 19 115 -47 150 -74 268 -103 450 -109 161 -6 259 8 397 54
186 62 359 179 489 331 37 42 70 76 74 75 4 -1 7 5 6 15 0 9 4 16 10 15 7 -1
11 3 11 10 -1 7 22 59 51 117 159 323 159 667 -1 990 -28 58 -51 111 -51 117
1 7 -2 11 -6 8 -4 -2 -35 31 -69 75 -60 78 -164 175 -241 226 -22 15 -37 31
-33 37 3 6 1 7 -5 3 -6 -3 -39 9 -74 28 -85 46 -222 93 -326 111 -103 18 -290
18 -390 0z m-157 -394 c-20 -39 -71 -78 -134 -102 -57 -21 -64 -14 -37 39 27
52 93 91 159 92 27 0 27 0 12 -29z m785 19 c42 -12 106 -74 115 -112 9 -35 -3
-36 -70 -4 -47 21 -125 94 -125 116 0 13 35 13 80 0z m-995 -81 c-10 -57 -28
-97 -63 -142 -29 -36 -30 -36 -36 -14 -10 42 21 119 68 170 14 15 28 27 31 27
4 0 4 -19 0 -41z m1173 9 c40 -42 62 -96 62 -150 l0 -43 -25 30 c-43 52 -98
195 -76 195 4 0 21 -15 39 -32z m-1054 -97 c10 -16 -42 -53 -109 -77 -37 -14
-69 -23 -71 -21 -2 1 6 18 17 36 29 48 144 93 163 62z m978 -3 c21 -6 52 -27
68 -45 54 -61 39 -64 -70 -16 -68 30 -96 53 -78 65 18 11 34 10 80 -4z m-1243
-203 c-25 -68 -39 -59 -39 28 0 44 7 70 28 110 l27 52 3 -66 c2 -49 -3 -81
-19 -124z m1466 73 c7 -41 -2 -115 -14 -123 -10 -5 -51 130 -51 165 0 14 3 36
7 49 6 23 7 22 29 -14 13 -21 26 -56 29 -77z m-1295 12 c0 -24 -36 -63 -100
-109 l-68 -49 9 36 c11 50 38 83 89 110 48 24 70 28 70 12z m1160 -12 c33 -17
51 -35 68 -68 12 -24 22 -52 22 -63 0 -15 -6 -13 -42 15 -70 53 -99 81 -114
111 -13 25 -13 27 4 27 10 0 38 -10 62 -22z m-1372 -225 c0 -46 -4 -83 -8 -83
-4 0 -16 17 -26 38 -19 40 -24 118 -10 167 l8 30 19 -35 c14 -27 18 -54 17
-117z m1561 51 c1 -49 -19 -117 -38 -128 -12 -8 -24 97 -16 137 4 17 14 46 23
62 l16 30 7 -25 c4 -14 7 -48 8 -76z m-796 65 l26 -20 29 21 c27 20 40 22 137
18 75 -2 110 -7 113 -15 2 -7 17 -13 32 -13 16 0 31 -3 33 -7 3 -5 -21 -60
-54 -123 -65 -128 -80 -144 -21 -23 65 136 64 133 42 133 -12 0 -20 -7 -20
-17 0 -10 -5 -25 -10 -33 -6 -10 -8 -4 -4 21 11 65 -13 51 -39 -24 -14 -39
-28 -82 -32 -95 -4 -13 -9 -21 -11 -19 -3 2 9 44 26 92 16 49 30 94 30 102 0
19 -171 18 -209 -2 -35 -18 -41 -44 -41 -187 l0 -109 26 20 c33 26 132 47 155
33 14 -9 19 -6 29 19 7 16 15 28 17 25 2 -2 -6 -24 -18 -48 -21 -38 -24 -40
-27 -19 -3 21 -7 23 -50 16 -55 -8 -111 -33 -126 -57 -13 -21 -1 -35 16 -20
15 12 138 45 144 39 2 -2 -26 -12 -63 -22 -38 -10 -78 -25 -91 -33 -20 -13
-30 -12 -90 6 -37 12 -80 24 -95 28 -37 9 -48 28 -93 167 -23 69 -44 117 -51
117 -16 0 -18 7 17 -84 17 -43 29 -80 27 -82 -2 -2 -20 37 -39 86 l-36 90 25
0 c14 0 36 9 50 20 22 17 41 20 123 20 83 0 101 -3 123 -21z m-628 -41 c-11
-48 -28 -78 -75 -128 l-41 -45 5 57 c5 64 26 102 71 129 42 26 48 24 40 -13z
m1276 10 c21 -12 45 -35 53 -52 14 -29 29 -126 20 -126 -8 0 -69 72 -82 97
-19 34 -42 103 -35 103 3 0 23 -10 44 -22z m-1042 -82 c7 -8 21 -45 31 -82 20
-67 20 -67 -1 -82 -13 -9 -19 -23 -17 -40 2 -23 16 -34 81 -66 42 -22 80 -37
83 -33 3 3 -27 22 -68 44 -73 38 -93 65 -52 71 28 4 253 -86 273 -110 26 -31
72 -178 57 -184 -27 -10 -140 -43 -142 -41 -1 1 -10 33 -20 72 l-19 69 -90 35
c-50 19 -92 35 -94 37 -5 4 -78 230 -86 265 -11 49 35 80 64 45z m682 -13
c-12 -20 -14 -14 -5 12 4 9 9 14 11 11 3 -2 0 -13 -6 -23z m193 4 c9 -13 1
-47 -37 -160 l-48 -143 -67 -23 c-117 -42 -118 -42 -137 -121 -12 -50 -21 -70
-31 -66 -7 3 -32 10 -55 16 -23 6 -52 15 -64 20 l-23 9 24 77 c14 42 31 85 39
97 15 21 272 130 287 121 4 -3 8 -14 8 -25 0 -15 -18 -28 -70 -52 -65 -30 -86
-47 -57 -47 6 0 44 17 82 38 57 30 71 42 73 64 2 17 -4 31 -17 40 -20 14 -20
17 -5 69 28 99 34 110 62 107 14 -2 30 -11 36 -21z m-213 -54 c-12 -20 -14
-14 -5 12 4 9 9 14 11 11 3 -2 0 -13 -6 -23z m-947 -147 c-14 -31 -30 -54 -34
-51 -15 9 -21 75 -10 116 6 23 23 53 38 68 l27 26 3 -51 c2 -39 -3 -65 -24
-108z m1366 103 c20 -39 26 -116 11 -153 -5 -14 -14 -4 -39 51 -29 63 -41 131
-26 146 12 12 35 -7 54 -44z m-1460 -57 c12 -31 24 -70 26 -87 l5 -30 -39 42
c-42 45 -68 118 -56 156 l7 21 18 -22 c10 -13 27 -48 39 -80z m1571 -26 c-12
-23 -32 -53 -46 -66 -24 -22 -25 -23 -25 -4 0 39 32 129 58 164 l27 35 3 -43
c2 -29 -4 -58 -17 -86z m-557 9 c-4 -8 -11 -15 -16 -15 -6 0 -5 6 2 15 7 8 14
15 16 15 2 0 1 -7 -2 -15z m-344 -50 c46 -14 90 -31 97 -37 11 -8 21 -6 42 10
16 12 42 24 57 27 l29 5 -30 -12 c-16 -7 -42 -21 -57 -31 -25 -17 -29 -17 -55
-3 -15 8 -59 25 -98 37 -74 23 -95 35 -95 52 0 6 6 4 13 -5 6 -9 50 -28 97
-43z m270 15 c-8 -5 -22 -9 -30 -9 -10 0 -8 3 5 9 27 12 43 12 25 0z m-786
-43 c11 -29 -11 -167 -26 -167 -20 0 -40 73 -33 119 12 82 40 104 59 48z
m1273 -14 c17 -42 10 -96 -16 -137 l-19 -28 -11 51 c-14 67 -14 134 1 149 15
15 27 6 45 -35z m-1387 -48 c19 -20 63 -125 52 -125 -3 0 -24 11 -48 25 -44
26 -84 90 -84 134 0 22 0 22 31 4 16 -10 39 -27 49 -38z m1530 50 c0 -2 -9
-28 -20 -58 -21 -56 -60 -100 -98 -112 -22 -6 -23 -5 -17 17 13 41 54 105 86
132 28 24 49 33 49 21z m-1357 -123 c19 -20 36 -91 37 -146 l0 -39 -26 24
c-44 40 -66 115 -48 163 8 21 17 20 37 -2z m1143 -16 c8 -44 -8 -93 -46 -137
l-29 -34 -1 57 c0 61 12 102 37 130 23 26 31 22 39 -16z m117 -89 c-22 -38
-71 -73 -121 -87 -20 -5 -37 -8 -38 -7 -1 1 10 20 25 42 27 41 143 113 149 94
2 -5 -5 -24 -15 -42z m-1374 23 c35 -17 126 -108 118 -117 -2 -1 -26 4 -54 12
-52 16 -123 79 -123 110 0 20 13 19 59 -5z m229 -63 c29 -30 79 -133 69 -143
-10 -10 -90 61 -103 91 -15 37 -19 85 -6 85 4 0 23 -15 40 -33z m917 14 c12
-38 -32 -110 -87 -143 l-30 -19 6 28 c14 58 74 153 97 153 4 0 10 -8 14 -19z
m-785 -92 c19 -11 60 -46 90 -77 57 -59 160 -112 218 -112 50 0 153 58 227
129 39 37 82 70 95 74 21 5 22 3 17 -30 -11 -63 -37 -82 -193 -138 -54 -19
-102 -39 -107 -44 -5 -5 21 -25 66 -50 l75 -42 311 3 c171 2 311 0 311 -4 0
-5 -371 -8 -825 -8 -454 0 -825 3 -825 8 0 4 147 6 327 4 l328 -2 73 38 c41
21 75 42 75 48 1 5 -49 27 -111 50 -128 46 -168 72 -188 120 -25 60 -19 66 36
33z m868 -44 c-40 -38 -100 -58 -156 -53 l-37 3 44 30 c40 27 170 69 181 58 3
-2 -12 -20 -32 -38z m-1033 6 c33 -16 69 -36 80 -45 19 -15 17 -15 -30 -15
-67 -1 -175 49 -175 81 0 18 68 7 125 -21z m234 -114 l34 -14 -38 -13 c-62
-21 -171 3 -183 39 -4 12 9 13 74 8 44 -3 94 -12 113 -20z m661 13 c0 -18 -82
-50 -125 -49 -22 0 -53 6 -70 13 l-30 13 50 16 c58 18 175 22 175 7z m-468
-222 c-15 -15 -16 -31 0 -22 8 5 9 2 5 -9 -8 -22 2 -22 18 0 8 11 14 13 19 5
4 -7 2 -12 -3 -12 -6 0 -11 -6 -11 -14 0 -20 -40 -16 -41 4 0 11 -3 9 -10 -5
-7 -16 -8 -13 -6 15 1 20 9 38 17 42 23 10 25 9 12 -4z m453 2 c4 -6 1 -9 -7
-8 -8 2 -14 -9 -16 -29 -2 -18 -8 -33 -14 -33 -12 0 -2 48 14 67 13 16 15 16
23 3z m-803 -70 c5 0 7 4 3 9 -3 5 2 17 11 26 12 12 19 13 24 5 6 -9 9 -9 15
-1 5 9 10 9 20 1 10 -8 15 -7 19 2 3 7 3 0 1 -17 -2 -16 -4 -36 -4 -42 -1 -7
-5 -13 -11 -13 -5 0 -7 13 -3 30 3 19 1 30 -6 30 -6 0 -11 -7 -11 -15 0 -8 -4
-15 -10 -15 -5 0 -10 7 -10 15 0 8 -5 15 -11 15 -6 0 -9 -7 -6 -14 9 -23 -34
-33 -46 -11 -8 14 -11 15 -19 4 -7 -10 -8 -7 -4 11 3 14 6 32 6 40 1 8 8 -2
17 -22 8 -21 19 -38 25 -38z m304 48 c-3 -13 -6 -29 -6 -35 0 -7 -4 -13 -10
-13 -5 0 -7 14 -4 33 5 30 5 31 -10 13 -9 -11 -16 -15 -16 -10 0 15 22 34 38
34 10 0 12 -7 8 -22z m439 -46 c-3 -4 -10 -1 -14 6 -6 10 -11 10 -21 -3 -7 -8
-17 -15 -23 -15 -6 0 -1 7 11 16 13 9 28 28 35 43 l11 26 4 -33 c2 -19 1 -37
-3 -40z m-1180 38 c10 -11 16 -20 13 -20 -3 0 -13 9 -23 20 -10 11 -16 20 -13
20 3 0 13 -9 23 -20z m892 -5 c-3 -16 0 -24 7 -22 6 2 11 14 10 26 0 11 3 21
8 21 4 0 8 -4 8 -9 0 -5 16 -8 35 -7 26 3 36 -1 40 -16 4 -10 10 -16 15 -13 5
3 7 12 3 20 -3 8 0 15 6 15 6 0 11 -11 11 -25 0 -18 -5 -25 -20 -25 -11 0 -20
7 -20 15 0 8 -5 15 -11 15 -6 0 -9 -7 -5 -15 3 -8 1 -15 -4 -15 -5 0 -10 10
-13 23 -4 22 -4 22 -15 -3 -9 -22 -11 -22 -12 -5 -1 18 -1 19 -11 3 -12 -21
-49 -24 -49 -4 0 18 11 46 17 46 3 0 3 -11 0 -25z m-315 -11 c-5 -26 -12 -31
-12 -8 0 16 -2 17 -10 4 -8 -12 -10 -11 -10 7 0 15 5 20 18 18 11 -1 16 -9 14
-21z m48 9 c0 -8 4 -12 9 -9 5 4 12 0 14 -6 3 -7 6 -3 6 10 1 12 6 22 12 22 6
0 8 -7 5 -16 -3 -9 -6 -24 -6 -34 0 -32 -31 -33 -43 -1 -10 27 -12 28 -25 13
-13 -16 -13 -16 -8 1 3 10 6 22 6 26 0 4 7 8 15 8 8 0 15 -7 15 -14z m480 4
c0 -6 -5 -19 -10 -27 -8 -12 -10 -12 -11 5 l0 20 -9 -20 -9 -20 -1 20 -1 20
-9 -20 c-8 -20 -9 -20 -9 1 -1 26 2 29 33 32 15 1 26 -3 26 -11z m139 6 c0 -5
-4 -17 -9 -28 -8 -18 -9 -17 -9 8 -1 15 4 27 9 27 6 0 10 -3 9 -7z m72 -12
c-7 -5 -10 -14 -7 -20 4 -6 3 -11 -2 -11 -5 0 -12 9 -15 20 -3 11 -1 18 3 15
5 -3 12 0 15 6 4 5 10 8 13 4 4 -3 0 -10 -7 -14z m-45 -11 c0 -11 -4 -20 -8
-20 -4 0 -8 9 -8 20 0 11 4 20 8 20 4 0 8 -9 8 -20z m-1098 -146 c55 -38 -5
-194 -75 -194 -31 0 -63 34 -63 68 0 40 41 115 70 129 33 16 41 16 68 -3z"/>
<path d="M1294 1796 c-3 -8 4 -48 15 -88 12 -41 21 -81 20 -89 0 -8 -11 24
-24 70 -27 92 -32 102 -45 82 -8 -14 -4 -31 40 -168 25 -78 46 -98 36 -35 -5
33 -4 34 5 10 8 -21 19 -28 52 -33 23 -4 62 -16 86 -26 24 -10 45 -19 47 -19
2 0 4 60 4 134 0 133 0 135 -26 155 -23 18 -41 21 -116 21 -67 0 -90 -3 -94
-14z"/>
<path d="M1347 1534 c-19 -20 -1 -33 66 -49 39 -10 77 -22 84 -27 25 -20 34
-2 14 24 -27 34 -144 71 -164 52z"/>
<path d="M1453 824 c-24 -14 -43 -30 -43 -35 0 -10 173 -13 183 -3 6 7 -77 64
-91 64 -4 -1 -26 -12 -49 -26z"/>
<path d="M1307 635 c3 -8 9 -12 14 -9 12 7 11 11 -5 17 -10 4 -13 1 -9 -8z"/>
<path d="M2466 824 c-31 -38 -30 -53 2 -33 17 11 25 9 56 -15 20 -15 33 -32
30 -38 -4 -6 -3 -8 2 -5 6 3 16 2 24 -4 10 -5 -23 -9 -93 -9 -105 0 -109 -1
-132 -27 -32 -36 -31 -44 3 -37 18 4 32 1 41 -9 17 -21 -3 -31 -30 -16 -67 36
-179 -44 -179 -128 0 -58 72 -133 128 -133 52 0 124 62 137 118 7 33 -8 78
-36 108 -14 15 -17 24 -9 29 13 8 62 -34 54 -46 -3 -5 1 -6 9 -3 21 8 40 -22
33 -51 -9 -37 8 -31 45 16 l33 41 -31 -6 c-24 -6 -37 -2 -62 19 -17 15 -29 31
-26 36 4 5 0 6 -8 3 -8 -3 -20 2 -27 11 -11 13 1 15 114 15 94 0 126 3 126 13
-1 6 -37 41 -81 76 -67 53 -80 69 -76 88 6 33 -13 27 -47 -13z m-118 -244 c45
-27 80 -100 64 -134 -25 -56 -112 -38 -160 34 -24 36 -28 97 -4 93 6 -2 11 0
11 5 -3 18 3 22 29 22 15 0 42 -9 60 -20z"/>
<path d="M2120 515 c-31 -17 -44 -19 -34 -4 4 7 -7 4 -24 -7 -17 -10 -29 -20
-27 -22 3 -3 11 1 20 8 9 7 18 10 21 7 9 -9 -77 -49 -92 -43 -8 3 -13 2 -10
-3 3 -5 -21 -19 -54 -31 -69 -26 -73 -30 -64 -65 8 -31 22 -32 33 -2 12 30 39
53 50 41 5 -5 23 -47 41 -93 30 -80 31 -86 14 -98 -31 -23 -8 -24 47 -3 66 26
82 40 47 40 -23 0 -30 9 -62 90 -20 50 -36 92 -36 95 0 10 67 4 78 -7 17 -17
28 0 14 22 -6 11 -8 22 -3 25 5 3 25 -21 44 -52 59 -98 67 -119 55 -131 -26
-26 3 -21 51 8 50 31 61 53 21 43 -12 -3 -20 0 -20 6 0 7 5 9 12 5 7 -4 8 -3
4 5 -4 6 -11 9 -16 6 -14 -8 -91 138 -80 149 12 12 13 26 3 26 -5 -1 -19 -7
-33 -15z"/>
<path d="M970 475 c14 -8 30 -14 35 -14 6 0 -1 6 -15 14 -14 8 -29 14 -35 14
-5 0 1 -6 15 -14z"/>
<path d="M943 452 c19 -20 18 -23 -13 -103 -26 -67 -30 -87 -21 -106 24 -52
121 -81 167 -49 11 8 33 46 48 85 45 116 71 107 50 -17 -17 -95 -20 -102 -39
-102 -23 0 -18 -19 8 -24 25 -6 57 -9 72 -7 6 1 0 9 -13 19 -22 17 -23 20 -11
90 l12 72 39 -65 c22 -36 36 -70 32 -77 -4 -7 -3 -8 4 -4 14 8 35 -30 26 -47
-4 -6 -4 -9 1 -5 4 4 14 3 22 -4 7 -6 16 -8 20 -4 4 3 14 53 22 109 15 93 18
102 39 105 22 3 22 1 22 -97 0 -83 -3 -101 -15 -101 -8 0 -15 -7 -15 -16 0
-26 166 -14 212 14 60 37 75 109 38 170 -30 48 -73 62 -182 60 -51 -1 -103 1
-115 6 -27 9 -32 -10 -7 -28 13 -10 14 -23 8 -74 -3 -34 -11 -59 -16 -56 -5 3
-6 15 -3 27 4 15 3 18 -3 9 -7 -10 -16 -2 -36 32 -15 26 -24 51 -20 58 4 7 3
8 -4 4 -6 -4 -18 6 -27 24 -11 20 -23 30 -39 30 -13 0 -40 7 -59 15 -46 19
-46 19 -44 -4 0 -11 5 -17 11 -14 16 10 0 -70 -25 -122 -19 -40 -29 -51 -52
-53 -37 -4 -77 22 -77 51 1 12 13 54 28 92 21 52 32 69 45 67 9 -2 17 2 17 7
0 11 -54 37 -99 48 -26 6 -26 6 -8 -15z m635 -152 c27 -25 36 -60 28 -108 -7
-44 -39 -71 -83 -72 l-33 0 0 54 c0 29 -3 74 -6 100 l-7 46 40 0 c26 0 47 -7
61 -20z"/>
<path d="M1726 368 c2 -4 0 -9 -6 -13 -15 -9 -12 -25 4 -25 11 0 10 -16 -4
-95 -9 -53 -22 -101 -28 -107 -18 -18 -15 -30 6 -25 9 3 29 8 45 11 32 8 35
21 6 29 -18 5 -20 11 -14 34 8 33 3 29 41 37 26 6 34 3 48 -19 14 -21 15 -29
5 -41 -6 -8 -10 -16 -8 -19 4 -4 101 14 108 21 1 1 -14 19 -34 39 -20 21 -34
43 -31 51 3 8 0 13 -7 11 -7 -1 -11 6 -11 15 1 10 -3 16 -10 15 -6 -1 -10 6
-10 15 1 10 -2 16 -6 13 -5 -3 -18 10 -29 29 -15 24 -28 33 -45 32 -13 0 -22
-4 -20 -8z m48 -97 c14 -26 14 -30 0 -35 -27 -10 -30 -7 -26 29 2 19 6 35 8
35 2 0 10 -13 18 -29z"/>
<path d="M1588 353 c7 -3 16 -2 19 1 4 3 -2 6 -13 5 -11 0 -14 -3 -6 -6z"/>
<path d="M1701 234 c0 -11 3 -14 6 -6 3 7 2 16 -1 19 -3 4 -6 -2 -5 -13z"/>
</g>
</svg>
